<svg xmlns="http://www.w3.org/2000/svg" width="640" height="640" viewBox="0 0 640 640" version="1.1"><path d="M 96.475 352.208 C 96.203 352.918, 96.097 377.800, 96.240 407.500 C 96.500 461.500, 96.500 461.500, 104.500 461.500 C 112.500 461.500, 112.500 461.500, 112.500 406.500 C 112.500 351.500, 112.500 351.500, 104.735 351.208 C 99.090 350.995, 96.835 351.268, 96.475 352.208 M 227 406.500 C 227 462, 227 462, 232.364 462 C 236.825 462, 238.171 461.557, 240.364 459.364 C 243 456.727, 243 456.727, 243 403.864 C 243 351, 243 351, 235 351 C 227 351, 227 351, 227 406.500 M 150.240 385.418 C 146.247 386.079, 142.548 387.052, 142.020 387.580 C 141.127 388.473, 143.067 398.401, 144.394 399.727 C 144.680 400.014, 150.101 399.689, 156.439 399.007 C 176.370 396.860, 183.269 399.101, 185.900 408.579 C 186.543 410.894, 186.991 422.179, 186.994 436.128 C 186.999 455.234, 187.270 459.979, 188.410 460.925 C 189.272 461.641, 192.478 461.980, 196.660 461.798 C 203.500 461.500, 203.500 461.500, 203.424 433.500 C 203.353 406.980, 203.231 405.197, 201.112 399.774 C 198.273 392.509, 192.983 387.820, 185.146 385.621 C 178.297 383.699, 161.217 383.600, 150.240 385.418 M 258.385 385.558 C 256.122 386.393, 252.410 388.669, 250.135 390.616 C 246 394.156, 246 394.156, 246 402.306 C 246 410.456, 246 410.456, 249.179 406.599 C 257.302 396.745, 272.347 396.493, 280.411 406.076 C 284.494 410.929, 285.970 414.417, 286.636 420.794 C 288.216 435.904, 278.331 448.911, 265.218 448.978 C 259.275 449.009, 254.333 446.693, 249.754 441.733 C 245.854 437.510, 245.854 437.510, 246.177 446.505 C 246.500 455.500, 246.500 455.500, 251.260 458.681 C 267.672 469.650, 290.266 462.479, 299.157 443.479 C 309.009 422.424, 302.170 397.486, 283.801 387.488 C 279.459 385.125, 277.107 384.566, 270.512 384.328 C 265.174 384.136, 261.127 384.547, 258.385 385.558 M 335.479 385.801 C 328.647 388.164, 324.481 391.323, 321.508 396.396 C 314.642 408.111, 318.791 421.652, 330.833 426.833 C 333.499 427.980, 340.707 429.823, 346.850 430.929 C 358.040 432.944, 360.984 433.935, 364.250 436.783 C 368.863 440.807, 363.993 448.187, 355.465 450.095 C 350 451.318, 350 451.318, 350 457.797 C 350 464.275, 350 464.275, 355.267 463.656 C 373.930 461.463, 384.642 449.180, 381.028 434.115 C 378.701 424.416, 371.088 419.700, 352.765 416.606 C 338.071 414.125, 334 412.055, 334 407.068 C 334 401.683, 339.792 397, 346.450 397 C 350 397, 350 397, 350 390.500 C 350 384, 350 384, 345.250 384.033 C 342.637 384.051, 338.241 384.847, 335.479 385.801 M 353 390.324 C 353 396.824, 353 396.824, 356.801 397.466 C 358.892 397.820, 363.230 399.434, 366.442 401.054 C 369.654 402.674, 372.663 404, 373.128 404 C 374.251 404, 379 396.426, 379 394.635 C 379 391.881, 366.468 386.058, 357.250 384.529 C 353 383.824, 353 383.824, 353 390.324 M 151.882 416.314 C 138.231 421.445, 132.439 432.678, 136.407 446.329 C 139.696 457.643, 148.004 463.303, 161.500 463.423 C 170.033 463.499, 175.509 462.248, 180.750 459.027 C 183.876 457.105, 184 456.783, 184 450.556 C 184 444.083, 184 444.083, 179.111 447.122 C 168.097 453.968, 154.219 451.017, 152.424 441.446 C 150.038 428.726, 162.745 423.155, 181.750 428.590 C 183.893 429.203, 184 428.966, 184 423.592 C 184 418.369, 183.796 417.870, 181.250 416.861 C 176.816 415.103, 156.128 414.718, 151.882 416.314 M 319.666 447.048 C 317.514 450.879, 317.100 452.416, 317.945 453.434 C 319.721 455.573, 330.999 460.588, 337 461.906 C 348.167 464.360, 347 464.866, 347 457.564 C 347 451.091, 347 451.091, 343.250 450.408 C 338.249 449.499, 330.308 446.356, 326.927 443.948 C 325.422 442.877, 323.811 442, 323.346 442.001 C 322.881 442.002, 321.225 444.273, 319.666 447.048" stroke="none" fill="#000000" fill-rule="evenodd"/><path d="M 0 320.002 C 0 640.003, 0 640.003, 320.250 639.752 C 640.500 639.500, 640.500 639.500, 640.752 319.750 C 641.003 0, 641.003 0, 320.502 0 C 0 0, 0 0, 0 320.002 M 0.494 320.500 C 0.494 496.500, 0.609 568.351, 0.750 480.169 C 0.891 391.987, 0.891 247.987, 0.750 160.169 C 0.609 72.351, 0.494 144.500, 0.494 320.500 M 94.230 224.550 C 86.916 226.519, 83.477 228.470, 78.442 233.505 C 67.572 244.375, 68.987 263.448, 81.275 271.683 C 86.908 275.457, 93.021 277.357, 106.521 279.527 C 121.366 281.914, 127.250 285.025, 127.250 290.488 C 127.250 296.126, 119.676 301.928, 112.250 301.978 C 109 302, 109 302, 109 310 C 109 318, 109 318, 112.451 318 C 121.803 318, 132.897 313.749, 138.830 307.893 C 144.405 302.390, 146.374 297.503, 146.441 289 C 146.492 282.565, 146.111 280.839, 143.763 276.844 C 138.954 268.663, 129.621 264.332, 110.711 261.505 C 93.583 258.944, 88.622 255.319, 91.275 247.303 C 92.778 242.763, 96.909 240.153, 103.903 239.325 C 109 238.721, 109 238.721, 109 230.861 C 109 223, 109 223, 104.250 223.066 C 101.638 223.102, 97.129 223.770, 94.230 224.550 M 112.618 223.715 C 112.278 224.055, 112 227.562, 112 231.508 C 112 238.682, 112 238.682, 117.590 239.933 C 120.665 240.621, 126.091 242.728, 129.648 244.615 C 133.206 246.502, 136.549 247.779, 137.079 247.451 C 138.397 246.637, 143.979 236.794, 143.991 235.264 C 144.015 232, 115.011 221.322, 112.618 223.715 M 184.010 224.567 C 178.240 225.384, 172.909 226.663, 172.162 227.409 C 171.036 228.535, 171.021 229.733, 172.070 234.422 C 174.087 243.436, 174.066 243.424, 185.066 241.974 C 196.651 240.447, 210.479 240.454, 214.500 241.988 C 219.152 243.764, 221.902 246.930, 223.518 252.373 C 224.671 256.256, 225 263.498, 225 285.027 C 225 317.964, 224.250 316, 236.829 316 C 245 316, 245 316, 244.984 284.250 C 244.967 249.731, 244.409 244.786, 239.600 236.580 C 236.649 231.546, 232.013 228.002, 225 225.422 C 218.682 223.098, 197.511 222.657, 184.010 224.567 M 313.230 224.528 C 306.414 226.392, 303.245 228.093, 299.250 232.033 C 296 235.237, 296 235.237, 296 245.827 C 296 256.416, 296 256.416, 300.250 252.317 C 305.926 246.842, 309.916 244.978, 318.939 243.588 C 326.500 242.424, 326.500 242.424, 327.741 236.462 C 328.423 233.183, 328.873 228.925, 328.741 227 C 328.502 223.530, 328.458 223.498, 323.500 223.293 C 320.750 223.180, 316.129 223.735, 313.230 224.528 M 382.698 224.375 C 380.607 225.159, 377.119 227.031, 374.948 228.536 C 371 231.272, 371 231.272, 371 240.536 C 371 249.800, 371 249.800, 374.310 246.490 C 378.527 242.273, 384.102 240.707, 390.599 241.915 C 394.485 242.637, 396.251 243.670, 399.125 246.901 C 401.119 249.142, 403.304 252.894, 403.980 255.238 C 404.758 257.933, 405.396 269.897, 405.717 287.785 C 406.225 316.070, 406.225 316.070, 415.862 315.785 C 425.500 315.500, 425.500 315.500, 425.777 288 C 426.082 257.814, 425.314 249.677, 421.321 240.781 C 418.420 234.316, 412.160 227.933, 406.317 225.481 C 400.905 223.210, 387.484 222.582, 382.698 224.375 M 440.396 224.418 C 435.273 226.022, 427.842 231.066, 425.630 234.442 C 424.044 236.863, 424.075 237.353, 426.222 243.749 C 427.468 247.462, 428.585 250.669, 428.703 250.876 C 428.821 251.082, 430.115 249.828, 431.578 248.090 C 435.303 243.662, 439.600 241.714, 445.640 241.714 C 453.069 241.714, 456.838 244.199, 460.500 251.510 C 463.500 257.500, 463.500 257.500, 464 286.500 C 464.500 315.500, 464.500 315.500, 474.250 315.786 C 484 316.072, 484 316.072, 484 284.992 C 484 250.258, 483.260 244.607, 477.601 236.139 C 470.357 225.301, 454.020 220.154, 440.396 224.418 M 540 224.379 C 523.035 229.071, 508.884 243.508, 505.085 260 C 502.854 269.687, 504.509 283.196, 509.005 292.009 C 512.393 298.650, 519.095 306.105, 525.261 310.090 C 531.609 314.193, 542.122 318, 547.105 318 C 550 318, 550 318, 550 309 C 550 300.796, 549.830 300, 548.083 300 C 547.029 300, 544.170 299.144, 541.730 298.099 C 530.932 293.470, 524.701 283.617, 524.593 271 C 524.544 265.216, 525.052 262.356, 526.814 258.500 C 530.755 249.876, 538.393 243.330, 546 242.057 C 549.500 241.471, 549.500 241.471, 549.788 232.235 C 550.075 223, 550.075 223, 547.288 223.067 C 545.754 223.105, 542.475 223.695, 540 224.379 M 553 232.031 C 553 238.401, 553.368 241.167, 554.250 241.417 C 554.938 241.612, 557.348 242.272, 559.606 242.883 C 565.442 244.462, 572.803 251.305, 575.692 257.838 C 577.463 261.843, 578.102 265.150, 578.166 270.641 C 578.241 277.045, 577.822 278.920, 575.062 284.526 C 571.292 292.184, 565.415 297.196, 557.966 299.105 C 553 300.378, 553 300.378, 553 309.189 C 553 319.167, 552.836 319.026, 561.972 316.921 C 577.116 313.431, 590.289 301.708, 595.820 286.801 C 605.321 261.190, 589.853 231.406, 563.485 224.538 C 552.790 221.753, 553 221.603, 553 232.031 M 273.667 225.667 C 273.300 226.033, 273 246.525, 273 271.203 C 273 316.072, 273 316.072, 282.750 315.786 C 292.500 315.500, 292.500 315.500, 292.761 273.066 C 293.022 230.632, 293.022 230.632, 290.324 227.816 C 287.895 225.281, 286.963 225, 280.980 225 C 277.324 225, 274.033 225.300, 273.667 225.667 M 347.491 227.250 C 347.191 228.488, 347.069 248.850, 347.222 272.500 C 347.500 315.500, 347.500 315.500, 356.916 315.790 C 363.776 316.001, 366.555 315.729, 367.151 314.790 C 367.601 314.080, 367.976 295.263, 367.985 272.973 C 367.998 236.999, 367.815 232.167, 366.354 229.973 C 363.506 225.696, 361.893 225, 354.828 225 C 348.615 225, 347.992 225.191, 347.491 227.250 M 191.214 260.070 C 174.103 262.293, 164 272.591, 164 287.811 C 164 300.573, 169.226 309.517, 179.668 314.626 C 190.349 319.852, 207.991 318.683, 218.750 312.037 C 221.986 310.038, 222 309.994, 222 301.893 C 222 293.756, 222 293.756, 219.750 295.377 C 212.911 300.304, 207.474 302.316, 201.220 302.232 C 193.912 302.135, 189.651 300.089, 186.253 295.048 C 181.992 288.725, 184.317 279.956, 191.198 276.398 C 195.945 273.943, 206.210 273.500, 214.312 275.401 C 218.059 276.281, 221.321 277, 221.562 277 C 221.803 277, 222 273.867, 222 270.039 C 222 263.077, 222 263.077, 218.077 262.021 C 214.221 260.982, 200.459 258.970, 198.500 259.158 C 197.950 259.210, 194.671 259.621, 191.214 260.070 M 73.211 297.590 C 71.445 300.664, 70 303.719, 70 304.379 C 70 307.659, 89.703 316.108, 100.750 317.565 C 106 318.258, 106 318.258, 106 310.357 C 106 302.456, 106 302.456, 99.250 301.178 C 95.274 300.424, 89.489 298.276, 85.173 295.950 C 81.143 293.777, 77.526 292, 77.134 292 C 76.742 292, 74.977 294.515, 73.211 297.590 M 96.705 350.628 C 96.317 351.016, 96 376.225, 96 406.648 C 96 461.962, 96 461.962, 98.292 462.537 C 99.552 462.853, 103.265 462.974, 106.542 462.806 C 112.500 462.500, 112.500 462.500, 112.500 406.500 C 112.500 350.500, 112.500 350.500, 104.955 350.212 C 100.805 350.053, 97.093 350.241, 96.705 350.628 M 227.250 350.662 C 226.271 351.057, 226 363.061, 226 405.961 C 226 467.716, 225.448 463.660, 233.726 462.727 C 237.354 462.319, 239.074 461.482, 241.218 459.083 C 244 455.968, 244 455.968, 244 404.184 C 244 365.241, 243.702 352.102, 242.800 351.200 C 241.625 350.025, 229.840 349.617, 227.250 350.662 M 420.779 379.250 C 419.697 382.354, 420.028 389.394, 421.350 391.411 C 422.145 392.625, 432.942 398.979, 445.386 405.557 C 457.811 412.126, 467.983 417.792, 467.989 418.150 C 467.995 418.507, 457.988 424.046, 445.750 430.459 C 433.512 436.872, 422.903 442.705, 422.173 443.422 C 419.364 446.181, 419.488 458.535, 422.318 457.816 C 423.003 457.642, 438.983 449.192, 457.828 439.039 C 489.625 421.907, 492.071 420.399, 491.796 418.101 C 491.590 416.378, 490.132 414.825, 487 412.992 C 481.567 409.813, 422.086 378, 421.575 378 C 421.376 378, 421.018 378.563, 420.779 379.250 M 155.500 384.103 C 141.951 385.755, 141.469 385.990, 141.688 390.821 C 141.791 393.102, 142.478 396.213, 143.214 397.734 C 144.487 400.363, 144.824 400.475, 150.027 400 C 153.037 399.725, 160.752 399.500, 167.171 399.500 C 178.111 399.500, 179.002 399.650, 181.392 401.897 C 185.679 405.927, 186.222 409.589, 186.407 435.728 C 186.568 458.529, 186.711 460.316, 188.481 461.610 C 190.561 463.131, 200.665 463.499, 202.820 462.133 C 203.875 461.463, 204.076 455.511, 203.820 432.398 C 203.500 403.500, 203.500 403.500, 200.672 397.742 C 195.817 387.855, 188.668 384.248, 172.500 383.528 C 167.550 383.308, 159.900 383.566, 155.500 384.103 M 259.500 384.964 C 256.200 386.049, 251.813 388.334, 249.750 390.041 C 246 393.146, 246 393.146, 246 402.069 C 246 410.993, 246 410.993, 250.750 406.090 C 258.015 398.590, 265.795 397.304, 275.119 402.061 C 285.441 407.326, 289.528 424.269, 283.466 436.659 C 278.772 446.253, 269.529 450.459, 259.528 447.551 C 255.397 446.350, 253.223 444.925, 250.081 441.355 C 246 436.718, 246 436.718, 246 446.381 C 246 456.044, 246 456.044, 250.562 458.937 C 256.581 462.754, 263.699 464.362, 271.961 463.771 C 284.152 462.898, 294.172 455.267, 300.289 442.197 C 306.355 429.234, 305.025 411.531, 297.061 399.221 C 288.534 386.042, 273.537 380.350, 259.500 384.964 M 338.500 384.406 C 331.986 386.016, 328.231 388.067, 324.301 392.165 C 317.523 399.230, 315.870 410.690, 320.491 418.575 C 324.589 425.568, 331.306 428.769, 347.739 431.563 C 353.107 432.476, 359.188 434.081, 361.250 435.132 C 364.499 436.786, 365 437.505, 365 440.520 C 365 445.931, 359.821 450, 352.935 450 C 350 450, 350 450, 350 457.145 C 350 464.289, 350 464.289, 356.337 463.697 C 371.707 462.262, 382 452.504, 382 439.369 C 382 433.013, 380.735 429.412, 377.186 425.661 C 372.313 420.510, 367.970 418.859, 351.808 416.015 C 341.311 414.167, 337.226 412.788, 335.765 410.600 C 334.329 408.449, 334.997 403.003, 336.935 401.065 C 338.839 399.161, 344.817 397.017, 348.250 397.006 C 349.749 397.001, 350 395.998, 350 390 C 350 383, 350 383, 346.750 383.085 C 344.962 383.132, 341.250 383.726, 338.500 384.406 M 353.201 390.601 C 353.500 397.473, 353.500 397.473, 357.237 398.077 C 359.293 398.409, 363.706 400.113, 367.046 401.863 C 370.385 403.614, 373.549 404.779, 374.077 404.452 C 374.606 404.126, 376.200 401.564, 377.621 398.761 C 380.205 393.663, 380.205 393.663, 377.852 391.859 C 374.256 389.102, 363.829 385.179, 358.064 384.414 C 352.902 383.729, 352.902 383.729, 353.201 390.601 M 154.734 415.088 C 141.915 418.108, 134.978 426.600, 135.022 439.218 C 135.060 449.986, 139.708 457.146, 149.603 461.676 C 154.572 463.950, 156.166 464.189, 163.928 463.818 C 170.886 463.485, 173.814 462.836, 178.331 460.627 C 184 457.853, 184 457.853, 184 450.376 C 184 442.898, 184 442.898, 180.545 445.533 C 170.919 452.876, 157.537 451.866, 153.566 443.497 C 150.634 437.318, 153.143 431.145, 159.718 428.362 C 163.881 426.600, 173.418 426.620, 179.341 428.402 C 184 429.804, 184 429.804, 184 423.470 C 184 416.371, 184.508 416.825, 174.566 415.056 C 167.640 413.823, 160.050 413.836, 154.734 415.088 M 319.595 446.428 C 318.168 448.864, 317 451.525, 317 452.343 C 317 455.449, 332.516 462.204, 342.779 463.565 C 348 464.258, 348 464.258, 348 457.597 C 348 453.113, 347.592 450.829, 346.750 450.605 C 346.063 450.422, 343.250 449.751, 340.500 449.112 C 337.750 448.474, 332.906 446.612, 329.735 444.976 C 326.565 443.339, 323.570 442, 323.080 442 C 322.591 442, 321.022 443.993, 319.595 446.428" stroke="none" fill="#ffffff" fill-rule="evenodd"/><path d="M 94.230 224.550 C 86.916 226.519, 83.477 228.470, 78.442 233.505 C 67.572 244.375, 68.987 263.448, 81.275 271.683 C 86.908 275.457, 93.021 277.357, 106.521 279.527 C 121.366 281.914, 127.250 285.025, 127.250 290.488 C 127.250 296.126, 119.676 301.928, 112.250 301.978 C 109 302, 109 302, 109 310 C 109 318, 109 318, 112.451 318 C 121.803 318, 132.897 313.749, 138.830 307.893 C 144.405 302.390, 146.374 297.503, 146.441 289 C 146.492 282.565, 146.111 280.839, 143.763 276.844 C 138.954 268.663, 129.621 264.332, 110.711 261.505 C 93.583 258.944, 88.622 255.319, 91.275 247.303 C 92.778 242.763, 96.909 240.153, 103.903 239.325 C 109 238.721, 109 238.721, 109 230.861 C 109 223, 109 223, 104.250 223.066 C 101.638 223.102, 97.129 223.770, 94.230 224.550 M 112.618 223.715 C 112.278 224.055, 112 227.562, 112 231.508 C 112 238.682, 112 238.682, 117.590 239.933 C 120.665 240.621, 126.091 242.728, 129.648 244.615 C 133.206 246.502, 136.549 247.779, 137.079 247.451 C 138.397 246.637, 143.979 236.794, 143.991 235.264 C 144.015 232, 115.011 221.322, 112.618 223.715 M 184.010 224.567 C 178.240 225.384, 172.909 226.663, 172.162 227.409 C 171.036 228.535, 171.021 229.733, 172.070 234.422 C 174.087 243.436, 174.066 243.424, 185.066 241.974 C 196.651 240.447, 210.479 240.454, 214.500 241.988 C 219.152 243.764, 221.902 246.930, 223.518 252.373 C 224.671 256.256, 225 263.498, 225 285.027 C 225 317.964, 224.250 316, 236.829 316 C 245 316, 245 316, 244.984 284.250 C 244.967 249.731, 244.409 244.786, 239.600 236.580 C 236.649 231.546, 232.013 228.002, 225 225.422 C 218.682 223.098, 197.511 222.657, 184.010 224.567 M 313.230 224.528 C 306.414 226.392, 303.245 228.093, 299.250 232.033 C 296 235.237, 296 235.237, 296 245.827 C 296 256.416, 296 256.416, 300.250 252.317 C 305.926 246.842, 309.916 244.978, 318.939 243.588 C 326.500 242.424, 326.500 242.424, 327.741 236.462 C 328.423 233.183, 328.873 228.925, 328.741 227 C 328.502 223.530, 328.458 223.498, 323.500 223.293 C 320.750 223.180, 316.129 223.735, 313.230 224.528 M 382.698 224.375 C 380.607 225.159, 377.119 227.031, 374.948 228.536 C 371 231.272, 371 231.272, 371 240.536 C 371 249.800, 371 249.800, 374.310 246.490 C 378.527 242.273, 384.102 240.707, 390.599 241.915 C 394.485 242.637, 396.251 243.670, 399.125 246.901 C 401.119 249.142, 403.304 252.894, 403.980 255.238 C 404.758 257.933, 405.396 269.897, 405.717 287.785 C 406.225 316.070, 406.225 316.070, 415.862 315.785 C 425.500 315.500, 425.500 315.500, 425.777 288 C 426.082 257.814, 425.314 249.677, 421.321 240.781 C 418.420 234.316, 412.160 227.933, 406.317 225.481 C 400.905 223.210, 387.484 222.582, 382.698 224.375 M 440.396 224.418 C 435.273 226.022, 427.842 231.066, 425.630 234.442 C 424.044 236.863, 424.075 237.353, 426.222 243.749 C 427.468 247.462, 428.585 250.669, 428.703 250.876 C 428.821 251.082, 430.115 249.828, 431.578 248.090 C 435.303 243.662, 439.600 241.714, 445.640 241.714 C 453.069 241.714, 456.838 244.199, 460.500 251.510 C 463.500 257.500, 463.500 257.500, 464 286.500 C 464.500 315.500, 464.500 315.500, 474.250 315.786 C 484 316.072, 484 316.072, 484 284.992 C 484 250.258, 483.260 244.607, 477.601 236.139 C 470.357 225.301, 454.020 220.154, 440.396 224.418 M 540 224.379 C 523.035 229.071, 508.884 243.508, 505.085 260 C 502.854 269.687, 504.509 283.196, 509.005 292.009 C 512.393 298.650, 519.095 306.105, 525.261 310.090 C 531.609 314.193, 542.122 318, 547.105 318 C 550 318, 550 318, 550 309 C 550 300.796, 549.830 300, 548.083 300 C 547.029 300, 544.170 299.144, 541.730 298.099 C 530.932 293.470, 524.701 283.617, 524.593 271 C 524.544 265.216, 525.052 262.356, 526.814 258.500 C 530.755 249.876, 538.393 243.330, 546 242.057 C 549.500 241.471, 549.500 241.471, 549.788 232.235 C 550.075 223, 550.075 223, 547.288 223.067 C 545.754 223.105, 542.475 223.695, 540 224.379 M 553 232.031 C 553 238.401, 553.368 241.167, 554.250 241.417 C 554.938 241.612, 557.348 242.272, 559.606 242.883 C 565.442 244.462, 572.803 251.305, 575.692 257.838 C 577.463 261.843, 578.102 265.150, 578.166 270.641 C 578.241 277.045, 577.822 278.920, 575.062 284.526 C 571.292 292.184, 565.415 297.196, 557.966 299.105 C 553 300.378, 553 300.378, 553 309.189 C 553 319.167, 552.836 319.026, 561.972 316.921 C 577.116 313.431, 590.289 301.708, 595.820 286.801 C 605.321 261.190, 589.853 231.406, 563.485 224.538 C 552.790 221.753, 553 221.603, 553 232.031 M 273.667 225.667 C 273.300 226.033, 273 246.525, 273 271.203 C 273 316.072, 273 316.072, 282.750 315.786 C 292.500 315.500, 292.500 315.500, 292.761 273.066 C 293.022 230.632, 293.022 230.632, 290.324 227.816 C 287.895 225.281, 286.963 225, 280.980 225 C 277.324 225, 274.033 225.300, 273.667 225.667 M 347.491 227.250 C 347.191 228.488, 347.069 248.850, 347.222 272.500 C 347.500 315.500, 347.500 315.500, 356.916 315.790 C 363.776 316.001, 366.555 315.729, 367.151 314.790 C 367.601 314.080, 367.976 295.263, 367.985 272.973 C 367.998 236.999, 367.815 232.167, 366.354 229.973 C 363.506 225.696, 361.893 225, 354.828 225 C 348.615 225, 347.992 225.191, 347.491 227.250 M 191.214 260.070 C 174.103 262.293, 164 272.591, 164 287.811 C 164 300.573, 169.226 309.517, 179.668 314.626 C 190.349 319.852, 207.991 318.683, 218.750 312.037 C 221.986 310.038, 222 309.994, 222 301.893 C 222 293.756, 222 293.756, 219.750 295.377 C 212.911 300.304, 207.474 302.316, 201.220 302.232 C 193.912 302.135, 189.651 300.089, 186.253 295.048 C 181.992 288.725, 184.317 279.956, 191.198 276.398 C 195.945 273.943, 206.210 273.500, 214.312 275.401 C 218.059 276.281, 221.321 277, 221.562 277 C 221.803 277, 222 273.867, 222 270.039 C 222 263.077, 222 263.077, 218.077 262.021 C 214.221 260.982, 200.459 258.970, 198.500 259.158 C 197.950 259.210, 194.671 259.621, 191.214 260.070 M 73.211 297.590 C 71.445 300.664, 70 303.719, 70 304.379 C 70 307.659, 89.703 316.108, 100.750 317.565 C 106 318.258, 106 318.258, 106 310.357 C 106 302.456, 106 302.456, 99.250 301.178 C 95.274 300.424, 89.489 298.276, 85.173 295.950 C 81.143 293.777, 77.526 292, 77.134 292 C 76.742 292, 74.977 294.515, 73.211 297.590 M 96.655 350.750 C 96.400 351.163, 99.930 351.500, 104.500 351.500 C 109.070 351.500, 112.600 351.163, 112.345 350.750 C 112.091 350.337, 108.560 350, 104.500 350 C 100.440 350, 96.909 350.337, 96.655 350.750 M 231.250 350.728 C 233.313 350.944, 236.688 350.944, 238.750 350.728 C 240.813 350.513, 239.125 350.336, 235 350.336 C 230.875 350.336, 229.188 350.513, 231.250 350.728 M 226.467 406 C 226.467 436.525, 226.594 449.012, 226.749 433.750 C 226.905 418.487, 226.905 393.512, 226.749 378.250 C 226.594 362.987, 226.467 375.475, 226.467 406 M 243.465 404 C 243.465 432.875, 243.593 444.688, 243.749 430.250 C 243.905 415.812, 243.905 392.187, 243.749 377.750 C 243.593 363.313, 243.465 375.125, 243.465 404 M 420.779 379.250 C 419.697 382.354, 420.028 389.394, 421.350 391.411 C 422.145 392.625, 432.942 398.979, 445.386 405.557 C 457.811 412.126, 467.983 417.792, 467.989 418.150 C 467.995 418.507, 457.988 424.046, 445.750 430.459 C 433.512 436.872, 422.903 442.705, 422.173 443.422 C 419.364 446.181, 419.488 458.535, 422.318 457.816 C 423.003 457.642, 438.983 449.192, 457.828 439.039 C 489.625 421.907, 492.071 420.399, 491.796 418.101 C 491.590 416.378, 490.132 414.825, 487 412.992 C 481.567 409.813, 422.086 378, 421.575 378 C 421.376 378, 421.018 378.563, 420.779 379.250 M 165.728 383.722 C 167.503 383.943, 170.653 383.946, 172.728 383.730 C 174.802 383.513, 173.350 383.333, 169.500 383.328 C 165.650 383.324, 163.952 383.501, 165.728 383.722 M 266.750 383.706 C 267.988 383.944, 270.012 383.944, 271.250 383.706 C 272.488 383.467, 271.475 383.272, 269 383.272 C 266.525 383.272, 265.512 383.467, 266.750 383.706 M 344.762 383.707 C 346.006 383.946, 347.806 383.937, 348.762 383.687 C 349.718 383.437, 348.700 383.241, 346.500 383.252 C 344.300 383.263, 343.518 383.468, 344.762 383.707 M 163.728 398.722 C 165.503 398.943, 168.653 398.946, 170.728 398.730 C 172.802 398.513, 171.350 398.333, 167.500 398.328 C 163.650 398.324, 161.952 398.501, 163.728 398.722 M 334 406.941 C 334 408.559, 334.356 410.102, 334.791 410.371 C 335.226 410.640, 335.402 409.316, 335.182 407.430 C 334.691 403.227, 334 402.941, 334 406.941 M 186.252 414.500 C 186.263 416.700, 186.468 417.482, 186.707 416.238 C 186.946 414.994, 186.937 413.194, 186.687 412.238 C 186.437 411.282, 186.241 412.300, 186.252 414.500 M 160.728 414.722 C 162.503 414.943, 165.653 414.946, 167.728 414.730 C 169.802 414.513, 168.350 414.333, 164.500 414.328 C 160.650 414.324, 158.952 414.501, 160.728 414.722 M 186.300 425 C 186.300 428.025, 186.487 429.262, 186.716 427.750 C 186.945 426.238, 186.945 423.762, 186.716 422.250 C 186.487 420.738, 186.300 421.975, 186.300 425 M 186.300 451 C 186.300 454.025, 186.487 455.262, 186.716 453.750 C 186.945 452.238, 186.945 449.762, 186.716 448.250 C 186.487 446.738, 186.300 447.975, 186.300 451 M 345.206 450.622 C 346.530 451.016, 346.994 452.570, 347.280 457.569 C 347.648 464.008, 347.648 464.008, 347.574 457.264 C 347.508 451.283, 347.274 450.498, 345.500 450.318 C 344.027 450.168, 343.950 450.249, 345.206 450.622 M 105 462 C 97.500 462.640, 97.500 462.640, 104.691 462.820 C 108.646 462.919, 112.160 462.550, 112.500 462 C 112.840 461.450, 112.979 461.081, 112.809 461.180 C 112.639 461.279, 109.125 461.648, 105 462 M 192.750 462.723 C 194.537 462.945, 197.463 462.945, 199.250 462.723 C 201.037 462.502, 199.575 462.320, 196 462.320 C 192.425 462.320, 190.963 462.502, 192.750 462.723 M 229.750 462.706 C 230.988 462.944, 233.012 462.944, 234.250 462.706 C 235.488 462.467, 234.475 462.272, 232 462.272 C 229.525 462.272, 228.512 462.467, 229.750 462.706" stroke="none" fill="#5372fe" fill-rule="evenodd"/></svg>