<svg xmlns="http://www.w3.org/2000/svg" width="640" height="640" viewBox="0 0 640 640" version="1.1"><path d="M 328 139.942 C 325.809 140.617, 301.076 152.701, 300.145 153.552 C 299.571 154.076, 318.404 172.999, 319.500 172.998 C 320.455 172.998, 345 149.328, 345 148.408 C 345 147.344, 337.414 140.728, 335.252 139.906 C 332.520 138.867, 331.473 138.872, 328 139.942 M 365.041 162.560 C 361.167 164.364, 356.161 168.481, 347.791 176.747 C 341.306 183.153, 336 188.837, 336 189.379 C 336 189.920, 339.538 193.994, 343.861 198.432 C 355.896 210.784, 359.621 219.970, 358.755 235.160 C 358.337 242.491, 357.684 245.126, 354.779 251.215 C 349.673 261.917, 340.095 270.697, 328.670 275.149 C 325.417 276.417, 324.490 277.501, 322.523 282.341 C 317.695 294.222, 306.204 305.252, 295.714 308.077 C 293.615 308.642, 291.651 309.869, 291.350 310.802 C 286.669 325.325, 274.307 337.699, 259.854 342.330 C 258.949 342.620, 257.448 345.146, 256.519 347.943 C 254.520 353.962, 247.055 364.264, 242.924 366.704 C 241.316 367.654, 240 368.723, 240 369.079 C 240 370.198, 228.633 374.885, 222.981 376.098 C 212.116 378.428, 198.219 375.526, 188.500 368.898 C 186.300 367.398, 181.814 363.432, 178.531 360.085 C 175.249 356.738, 172.083 354, 171.496 354 C 170.909 354, 162.233 362.240, 152.215 372.311 C 134 390.623, 134 390.623, 134 396.075 C 134 401.527, 134 401.527, 183.773 451.264 C 229.306 496.763, 233.827 501, 236.839 501 C 238.650 501, 241.114 500.503, 242.316 499.895 C 243.517 499.287, 259.800 483.584, 278.500 465 C 312.500 431.209, 312.500 431.209, 327.500 430.673 C 348.708 429.915, 360.334 426.307, 372.770 416.626 C 375.921 414.172, 396.141 394.465, 417.702 372.832 C 451.736 338.685, 457.273 332.709, 459.702 327.500 C 466.620 312.664, 460.658 294.073, 446.667 286.853 C 443.737 285.341, 443.008 284.477, 443.571 283.187 C 443.976 282.259, 444.512 278.500, 444.762 274.834 C 445.559 263.145, 440.582 253.112, 430.864 246.815 C 425.986 243.654, 425.879 243.480, 426.679 240.036 C 428.088 233.967, 427.428 224.757, 425.228 219.782 C 422.760 214.203, 416.381 207.059, 411.539 204.451 C 408.675 202.909, 408.149 202.167, 408.754 200.525 C 409.164 199.411, 409.500 194.900, 409.500 190.500 C 409.500 181.103, 407.293 175.604, 400.859 168.975 C 394.714 162.642, 388.165 160.020, 378.500 160.020 C 372.031 160.020, 369.455 160.506, 365.041 162.560 M 259.460 163.064 C 255.039 164.350, 248.494 170.347, 246.088 175.318 C 243.644 180.367, 243.293 189.376, 245.348 194.282 C 246.090 196.052, 247.930 198.963, 249.437 200.750 C 252.599 204.499, 252.543 204.543, 247.375 202.383 C 242.206 200.224, 233.340 201.021, 228.275 204.102 C 220.396 208.893, 216.572 215.565, 216.583 224.500 C 216.592 231.789, 218.905 236.622, 225.417 242.958 C 227.938 245.410, 230 247.750, 230 248.157 C 230 248.565, 228.439 248.246, 226.532 247.449 C 218.838 244.234, 208.905 246.295, 202.381 252.460 C 197.136 257.416, 194.993 262.296, 195.022 269.218 C 195.051 276.111, 197.676 281.720, 204.008 288.415 C 209.100 293.799, 209.100 293.799, 205.300 292.443 C 192.080 287.728, 177.761 295.082, 174.318 308.356 C 172.845 314.033, 173.462 319.895, 176.068 325 C 178.809 330.367, 199.726 350.561, 205 352.933 C 217.125 358.385, 232.154 351.802, 236.464 339.152 C 238.495 333.190, 238.402 330.079, 236.001 323.761 C 234.901 320.867, 234.001 318.431, 234.001 318.346 C 234 318.261, 236.362 319.095, 239.250 320.199 C 251.738 324.974, 265.324 318.574, 269.520 305.940 C 271.475 300.054, 271.084 292.996, 268.528 288.054 C 266.680 284.481, 266.675 284.484, 271.096 286.727 C 273.182 287.785, 276.824 288.459, 280.500 288.469 C 294.813 288.504, 304.883 277.590, 303.735 263.286 C 303.457 259.829, 302.504 255.891, 301.615 254.535 C 299.430 251.200, 299.582 250.686, 302.250 252.396 C 309.417 256.988, 320.403 256.355, 327.787 250.925 C 336.180 244.753, 339.469 231.733, 334.979 222.456 C 332.211 216.739, 281.950 166.402, 276.500 163.889 C 272.256 161.932, 264.625 161.562, 259.460 163.064 M 428 393.397 C 396.829 424.470, 386.819 433.847, 380.528 437.868 C 371.886 443.392, 364.057 446.917, 354.218 449.714 C 347.936 451.500, 347.936 451.500, 372.902 476.388 C 397.868 501.275, 397.868 501.275, 402.573 500.745 C 407.263 500.216, 407.434 500.059, 456.144 451.357 C 489.240 418.267, 505.346 401.479, 506.054 399.336 C 506.848 396.932, 506.756 395.370, 505.672 392.836 C 504.399 389.861, 469.716 353.984, 468.138 354.011 C 467.787 354.016, 449.725 371.740, 428 393.397" stroke="none" fill="#f8fafa" fill-rule="evenodd"/><path d="M 0 320.002 C 0 640.003, 0 640.003, 320.250 639.752 C 640.500 639.500, 640.500 639.500, 640.752 319.750 C 641.003 0, 641.003 0, 320.502 0 C 0 0, 0 0, 0 320.002 M 0.494 320.500 C 0.494 496.500, 0.609 568.351, 0.750 480.169 C 0.891 391.987, 0.891 247.987, 0.750 160.169 C 0.609 72.351, 0.494 144.500, 0.494 320.500 M 328 139.942 C 325.809 140.617, 301.076 152.701, 300.145 153.552 C 299.571 154.076, 318.404 172.999, 319.500 172.998 C 320.455 172.998, 345 149.328, 345 148.408 C 345 147.344, 337.414 140.728, 335.252 139.906 C 332.520 138.867, 331.473 138.872, 328 139.942 M 365.041 162.560 C 361.167 164.364, 356.161 168.481, 347.791 176.747 C 341.306 183.153, 336 188.837, 336 189.379 C 336 189.920, 339.538 193.994, 343.861 198.432 C 355.896 210.784, 359.621 219.970, 358.755 235.160 C 358.337 242.491, 357.684 245.126, 354.779 251.215 C 349.673 261.917, 340.095 270.697, 328.670 275.149 C 325.417 276.417, 324.490 277.501, 322.523 282.341 C 317.695 294.222, 306.204 305.252, 295.714 308.077 C 293.615 308.642, 291.651 309.869, 291.350 310.802 C 286.669 325.325, 274.307 337.699, 259.854 342.330 C 258.949 342.620, 257.448 345.146, 256.519 347.943 C 254.520 353.962, 247.055 364.264, 242.924 366.704 C 241.316 367.654, 240 368.723, 240 369.079 C 240 370.198, 228.633 374.885, 222.981 376.098 C 212.116 378.428, 198.219 375.526, 188.500 368.898 C 186.300 367.398, 181.814 363.432, 178.531 360.085 C 175.249 356.738, 172.083 354, 171.496 354 C 170.909 354, 162.233 362.240, 152.215 372.311 C 134 390.623, 134 390.623, 134 396.075 C 134 401.527, 134 401.527, 183.773 451.264 C 229.306 496.763, 233.827 501, 236.839 501 C 238.650 501, 241.114 500.503, 242.316 499.895 C 243.517 499.287, 259.800 483.584, 278.500 465 C 312.500 431.209, 312.500 431.209, 327.500 430.673 C 348.708 429.915, 360.334 426.307, 372.770 416.626 C 375.921 414.172, 396.141 394.465, 417.702 372.832 C 451.736 338.685, 457.273 332.709, 459.702 327.500 C 466.620 312.664, 460.658 294.073, 446.667 286.853 C 443.737 285.341, 443.008 284.477, 443.571 283.187 C 443.976 282.259, 444.512 278.500, 444.762 274.834 C 445.559 263.145, 440.582 253.112, 430.864 246.815 C 425.986 243.654, 425.879 243.480, 426.679 240.036 C 428.088 233.967, 427.428 224.757, 425.228 219.782 C 422.760 214.203, 416.381 207.059, 411.539 204.451 C 408.675 202.909, 408.149 202.167, 408.754 200.525 C 409.164 199.411, 409.500 194.900, 409.500 190.500 C 409.500 181.103, 407.293 175.604, 400.859 168.975 C 394.714 162.642, 388.165 160.020, 378.500 160.020 C 372.031 160.020, 369.455 160.506, 365.041 162.560 M 259.460 163.064 C 255.039 164.350, 248.494 170.347, 246.088 175.318 C 243.644 180.367, 243.293 189.376, 245.348 194.282 C 246.090 196.052, 247.930 198.963, 249.437 200.750 C 252.599 204.499, 252.543 204.543, 247.375 202.383 C 242.206 200.224, 233.340 201.021, 228.275 204.102 C 220.396 208.893, 216.572 215.565, 216.583 224.500 C 216.592 231.789, 218.905 236.622, 225.417 242.958 C 227.938 245.410, 230 247.750, 230 248.157 C 230 248.565, 228.439 248.246, 226.532 247.449 C 218.838 244.234, 208.905 246.295, 202.381 252.460 C 197.136 257.416, 194.993 262.296, 195.022 269.218 C 195.051 276.111, 197.676 281.720, 204.008 288.415 C 209.100 293.799, 209.100 293.799, 205.300 292.443 C 192.080 287.728, 177.761 295.082, 174.318 308.356 C 172.845 314.033, 173.462 319.895, 176.068 325 C 178.809 330.367, 199.726 350.561, 205 352.933 C 217.125 358.385, 232.154 351.802, 236.464 339.152 C 238.495 333.190, 238.402 330.079, 236.001 323.761 C 234.901 320.867, 234.001 318.431, 234.001 318.346 C 234 318.261, 236.362 319.095, 239.250 320.199 C 251.738 324.974, 265.324 318.574, 269.520 305.940 C 271.475 300.054, 271.084 292.996, 268.528 288.054 C 266.680 284.481, 266.675 284.484, 271.096 286.727 C 273.182 287.785, 276.824 288.459, 280.500 288.469 C 294.813 288.504, 304.883 277.590, 303.735 263.286 C 303.457 259.829, 302.504 255.891, 301.615 254.535 C 299.430 251.200, 299.582 250.686, 302.250 252.396 C 309.417 256.988, 320.403 256.355, 327.787 250.925 C 336.180 244.753, 339.469 231.733, 334.979 222.456 C 332.211 216.739, 281.950 166.402, 276.500 163.889 C 272.256 161.932, 264.625 161.562, 259.460 163.064 M 428 393.397 C 396.829 424.470, 386.819 433.847, 380.528 437.868 C 371.886 443.392, 364.057 446.917, 354.218 449.714 C 347.936 451.500, 347.936 451.500, 372.902 476.388 C 397.868 501.275, 397.868 501.275, 402.573 500.745 C 407.263 500.216, 407.434 500.059, 456.144 451.357 C 489.240 418.267, 505.346 401.479, 506.054 399.336 C 506.848 396.932, 506.756 395.370, 505.672 392.836 C 504.399 389.861, 469.716 353.984, 468.138 354.011 C 467.787 354.016, 449.725 371.740, 428 393.397" stroke="none" fill="#046bdb" fill-rule="evenodd"/></svg>