<?xml version="1.0" encoding="UTF-8"?>
<svg version="1.1" xmlns="http://www.w3.org/2000/svg" width="200" height="200">
<path d="M0 0 C66 0 132 0 200 0 C200 66 200 132 200 200 C134 200 68 200 0 200 C0 134 0 68 0 0 Z " fill="#FEFEFE" transform="translate(0,0)"/>
<path d="M0 0 C3.30125022 2.33521617 4.81245367 4.99975289 5.5625 9 C4.72644071 13.45898285 2.80828083 16.67392739 -0.875 19.375 C-3.85516446 20.25151896 -5.89838626 20.43422592 -9 20 C-11.92483867 18.17452064 -14.43429205 16.13141589 -16 13 C-16.3751455 8.02932218 -16.15878799 4.94848498 -13 1 C-8.68052528 -1.68010052 -4.77380872 -1.45252899 0 0 Z " fill="#ECF1FD" transform="translate(154,75)"/>
<path d="M0 0 C1.32 0 2.64 0 4 0 C4.33 2.64 4.66 5.28 5 8 C6.3303125 7.62875 6.3303125 7.62875 7.6875 7.25 C11 7 11 7 13.8125 8.8125 C16.4151697 11.4151697 16.94870639 12.21349801 17.1875 15.875 C17.00322294 18.94628429 16.7058043 20.48618314 15 23 C11.52728445 25.3151437 10.07260203 25.25453763 6 25 C5.01 24.67 4.02 24.34 3 24 C2.01 24.33 1.02 24.66 0 25 C0 16.75 0 8.5 0 0 Z " fill="#DBDBDB" transform="translate(77,102)"/>
<path d="M0 0 C1.72694675 -0.13609913 3.45704722 -0.23249228 5.1875 -0.3125 C6.15042969 -0.37050781 7.11335938 -0.42851563 8.10546875 -0.48828125 C12.21448994 0.20487347 13.57167638 1.65665589 16 5 C16.36771245 7.8387401 16.48630804 10.01820151 16.3125 12.8125 C16.28994141 13.50537109 16.26738281 14.19824219 16.24414062 14.91210938 C16.18562661 16.60901573 16.0959548 18.30479861 16 20 C13.75308523 20.2763585 11.50215158 20.52018861 9.25 20.75 C7.99703125 20.88921875 6.7440625 21.0284375 5.453125 21.171875 C2 21 2 21 -0.421875 19.20703125 C-2 17 -2 17 -2.5 13.9375 C-2 11 -2 11 -0.5625 9.125 C3.25144551 7.4505849 6.89579485 7.76321893 11 8 C10.67 7.01 10.34 6.02 10 5 C6.7 4.67 3.4 4.34 0 4 C0 2.68 0 1.36 0 0 Z " fill="#738AEC" transform="translate(65,74)"/>
<path d="M0 0 C3.625 0.1875 3.625 0.1875 6.625 2.1875 C7.615 1.5275 8.605 0.8675 9.625 0.1875 C13.01068806 -0.17267958 14.9522019 -0.19435838 17.9375 1.5 C20.47951304 4.04201304 20.61952802 5.99948284 20.72265625 9.54296875 C20.71105469 10.80753906 20.69945312 12.07210937 20.6875 13.375 C20.67847656 14.64730469 20.66945312 15.91960937 20.66015625 17.23046875 C20.64855469 18.20628906 20.63695312 19.18210937 20.625 20.1875 C18.975 20.1875 17.325 20.1875 15.625 20.1875 C15.295 15.5675 14.965 10.9475 14.625 6.1875 C12.15 5.6925 12.15 5.6925 9.625 5.1875 C7.62883446 7.18366554 8.21516573 11.00451963 8.0625 13.75 C8.01931641 14.46091797 7.97613281 15.17183594 7.93164062 15.90429688 C7.82528223 17.66511912 7.72461154 19.4262832 7.625 21.1875 C5.975 21.1875 4.325 21.1875 2.625 21.1875 C2.295 16.2375 1.965 11.2875 1.625 6.1875 C-0.025 5.8575 -1.675 5.5275 -3.375 5.1875 C-3.9375 3.25 -3.9375 3.25 -4.375 1.1875 C-3.375 0.1875 -3.375 0.1875 0 0 Z " fill="#6680F1" transform="translate(113.375,73.8125)"/>
<path d="M0 0 C2.97 0.495 2.97 0.495 6 1 C9.26410357 0.62382706 9.26410357 0.62382706 12 0 C12 1.65 12 3.3 12 5 C11.01 5 10.02 5 9 5 C9 5.66 9 6.32 9 7 C8.01 7.495 8.01 7.495 7 8 C6.30772968 10.80980673 6.30772968 10.80980673 5.875 14.0625 C5.70742187 15.16722656 5.53984375 16.27195312 5.3671875 17.41015625 C5.24601562 18.26480469 5.12484375 19.11945313 5 20 C3.35 20 1.7 20 0 20 C0 13.4 0 6.8 0 0 Z " fill="#5B74E3" transform="translate(87,74)"/>
<path d="M0 0 C0 0.99 0 1.98 0 3 C-0.99 3.33 -1.98 3.66 -3 4 C-3 4.99 -3 5.98 -3 7 C0.3 7.99 3.6 8.98 7 10 C8.3364486 16.43925234 8.3364486 16.43925234 6.875 18.875 C4.60789115 20.23526531 2.60623142 20.64780657 0 21 C0 19.68 0 18.36 0 17 C0.99 16.67 1.98 16.34 3 16 C3 15.34 3 14.68 3 14 C2.30132812 13.81824219 1.60265625 13.63648437 0.8828125 13.44921875 C-0.02726562 13.19785156 -0.93734375 12.94648437 -1.875 12.6875 C-2.77992187 12.44386719 -3.68484375 12.20023438 -4.6171875 11.94921875 C-7 11 -7 11 -9 8 C-8.7909311 5.21241468 -8.33997443 3.49296292 -6.75 1.1875 C-4.41988723 -0.39364795 -2.75498245 -0.22337696 0 0 Z " fill="#647AED" transform="translate(51,74)"/>
<path d="M0 0 C0.99 0.66 1.98 1.32 3 2 C3 2.99 3 3.98 3 5 C0.36 4.67 -2.28 4.34 -5 4 C-5.33 4.99 -5.66 5.98 -6 7 C-5.36191406 7.13277344 -4.72382812 7.26554687 -4.06640625 7.40234375 C-2.82697266 7.66724609 -2.82697266 7.66724609 -1.5625 7.9375 C-0.73878906 8.11152344 0.08492187 8.28554687 0.93359375 8.46484375 C3 9 3 9 4 10 C4.3125 12.375 4.3125 12.375 4 15 C2.1875 16.8125 2.1875 16.8125 0 18 C-0.99 18 -1.98 18 -3 18 C-3 17.01 -3 16.02 -3 15 C-2.34 14.67 -1.68 14.34 -1 14 C-1 13.34 -1 12.68 -1 12 C-2.11375 11.71125 -3.2275 11.4225 -4.375 11.125 C-8 10 -8 10 -10 8 C-10.375 5.5625 -10.375 5.5625 -10 3 C-7.02226725 -0.3213173 -4.30709925 -0.45820205 0 0 Z " fill="#131313" transform="translate(107,109)"/>
<path d="M0 0 C1.72694675 -0.13609913 3.45704722 -0.23249228 5.1875 -0.3125 C6.15042969 -0.37050781 7.11335938 -0.42851563 8.10546875 -0.48828125 C12.21448994 0.20487347 13.57167638 1.65665589 16 5 C16.36771245 7.8387401 16.48630804 10.01820151 16.3125 12.8125 C16.28994141 13.50537109 16.26738281 14.19824219 16.24414062 14.91210938 C16.18562661 16.60901573 16.0959548 18.30479861 16 20 C14.68 20 13.36 20 12 20 C11.93941406 19.08476563 11.87882812 18.16953125 11.81640625 17.2265625 C11.69072266 15.44378906 11.69072266 15.44378906 11.5625 13.625 C11.48128906 12.44164063 11.40007812 11.25828125 11.31640625 10.0390625 C11.18915064 7.08481099 11.18915064 7.08481099 10 5 C7.64400765 4.53248212 7.64400765 4.53248212 4.9375 4.375 C4.01839844 4.30023438 3.09929687 4.22546875 2.15234375 4.1484375 C1.44207031 4.09945312 0.73179688 4.05046875 0 4 C0 2.68 0 1.36 0 0 Z " fill="#5F79E9" transform="translate(65,74)"/>
<path d="M0 0 C2.87833732 2.65110016 3.8974856 4.16279904 4.375 8.0625 C4.00950778 10.9255224 3.60997354 12.62740741 2 15 C-1.45662331 17.30441554 -2.94857881 17.25860135 -7 17 C-7.66 16.67 -8.32 16.34 -9 16 C-8.67 14.68 -8.34 13.36 -8 12 C-6.35 12.33 -4.7 12.66 -3 13 C-0.63307034 10.15173402 -0.63307034 10.15173402 -1.375 6.8125 C-1.58125 5.884375 -1.7875 4.95625 -2 4 C-4.31 4 -6.62 4 -9 4 C-8.625 2.0625 -8.625 2.0625 -8 0 C-4.99733781 -1.5013311 -3.18669322 -0.8922741 0 0 Z " fill="#171717" transform="translate(90,110)"/>
<path d="M0 0 C0 1.32 0 2.64 0 4 C-0.639375 4.185625 -1.27875 4.37125 -1.9375 4.5625 C-4.35798084 5.93752866 -4.35798084 5.93752866 -5.0625 9.375 C-5.041875 10.57125 -5.02125 11.7675 -5 13 C-2.61881834 15.22168366 -2.61881834 15.22168366 0 17 C0 18.32 0 19.64 0 21 C-3.76842665 20.78466133 -4.99717333 20.00263823 -7.8125 17.375 C-9.75765923 14.81622587 -10.02797522 13.80067659 -10.5 10.4375 C-9.96980455 6.79240629 -9.29088372 4.86360465 -7 2 C-4.35582586 0.26476072 -3.21534057 0 0 0 Z " fill="#607AEB" transform="translate(148,74)"/>
<path d="M0 0 C3.55839258 0.88959814 5.68878692 1.70516655 8.375 4.25 C10.35090834 7.59384489 10.62465639 9.17397961 10 13 C8.375 16.3125 8.375 16.3125 6 19 C2.75 19.875 2.75 19.875 0 20 C0 19.01 0 18.02 0 17 C0.66 16.5875 1.32 16.175 2 15.75 C4.38082134 14.05044358 4.38082134 14.05044358 4.5 10.5 C4.38868445 6.94824343 4.38868445 6.94824343 2 5.3125 C1.34 4.879375 0.68 4.44625 0 4 C0 2.68 0 1.36 0 0 Z " fill="#627BEB" transform="translate(149,74)"/>
<path d="M0 0 C0.99 0 1.98 0 3 0 C4.17426264 2.34852528 4.11508173 3.73774065 4.09765625 6.3515625 C4.09443359 7.20234375 4.09121094 8.053125 4.08789062 8.9296875 C4.07951172 9.81914063 4.07113281 10.70859375 4.0625 11.625 C4.05798828 12.5221875 4.05347656 13.419375 4.04882812 14.34375 C4.03702591 16.56256648 4.02056155 18.78125018 4 21 C2.35 21 0.7 21 -1 21 C-1.02888146 17.68751813 -1.04675799 14.37506833 -1.0625 11.0625 C-1.07087891 10.11697266 -1.07925781 9.17144531 -1.08789062 8.19726562 C-1.09111328 7.29814453 -1.09433594 6.39902344 -1.09765625 5.47265625 C-1.10289307 4.64000244 -1.10812988 3.80734863 -1.11352539 2.94946289 C-1 1 -1 1 0 0 Z " fill="#6D83EC" transform="translate(104,74)"/>
<path d="M0 0 C7.14718353 -0.48455482 7.14718353 -0.48455482 10.75 1.5625 C13 4 13 4 13.48828125 7.453125 C13.43027344 8.70609375 13.37226562 9.9590625 13.3125 11.25 C13.26738281 12.51328125 13.22226563 13.7765625 13.17578125 15.078125 C13.11777344 16.04234375 13.05976562 17.0065625 13 18 C11.68 18 10.36 18 9 18 C8.67 13.71 8.34 9.42 8 5 C5.03 4.67 2.06 4.34 -1 4 C-0.67 2.68 -0.34 1.36 0 0 Z " fill="#1F1F1F" transform="translate(59,109)"/>
<path d="M0 0 C1.32 0 2.64 0 4 0 C4 8.25 4 16.5 4 25 C2.68 25 1.36 25 0 25 C0 16.75 0 8.5 0 0 Z " fill="#171717" transform="translate(48,102)"/>
<path d="M0 0 C3.79049707 1.42749981 7.27122456 3.16236542 10.8125 5.125 C12.27623047 5.93324219 12.27623047 5.93324219 13.76953125 6.7578125 C14.50558594 7.16773437 15.24164063 7.57765625 16 8 C16 8.66 16 9.32 16 10 C13.87767021 11.17176518 11.75242209 12.33754785 9.625 13.5 C9.02171875 13.83386719 8.4184375 14.16773437 7.796875 14.51171875 C3.2265625 17 3.2265625 17 1 17 C1.125 15.1875 1.125 15.1875 2 13 C7.03571429 10 7.03571429 10 10 10 C7.2180632 6.72713318 3.72045933 5.03572303 0 3 C0 2.01 0 1.02 0 0 Z " fill="#6C7EE2" transform="translate(119,108)"/>
<path d="M0 0 C3.5625 0.1875 3.5625 0.1875 5.5625 2.1875 C5.70767744 5.0968558 5.74880796 7.907446 5.6875 10.8125 C5.67847656 11.61429688 5.66945313 12.41609375 5.66015625 13.2421875 C5.63656223 15.22408523 5.60069065 17.20582981 5.5625 19.1875 C4.9025 19.1875 4.2425 19.1875 3.5625 19.1875 C2.9025 14.8975 2.2425 10.6075 1.5625 6.1875 C-0.0875 5.8575 -1.7375 5.5275 -3.4375 5.1875 C-4 3.25 -4 3.25 -4.4375 1.1875 C-3.4375 0.1875 -3.4375 0.1875 0 0 Z " fill="#5471F7" transform="translate(113.4375,73.8125)"/>
<path d="M0 0 C0.99 0 1.98 0 3 0 C3 7.92 3 15.84 3 24 C2.01 24.33 1.02 24.66 0 25 C0 16.75 0 8.5 0 0 Z " fill="#030303" transform="translate(77,102)"/>
<path d="M0 0 C0.33 0.99 0.66 1.98 1 3 C-0.98 3.33 -2.96 3.66 -5 4 C-5 4.99 -5 5.98 -5 7 C-3.02 7 -1.04 7 1 7 C1 7.99 1 8.98 1 10 C-1.76250036 11.38125018 -3.94731099 11.19079306 -7 11 C-9 9 -9 9 -9.3125 5.5 C-9.209375 4.345 -9.10625 3.19 -9 2 C-5.5647952 -0.29013653 -4.014669 -0.17842973 0 0 Z " fill="#121212" transform="translate(66,116)"/>
<path d="M0 0 C0 1.65 0 3.3 0 5 C-0.99 5 -1.98 5 -3 5 C-3 5.66 -3 6.32 -3 7 C-3.99 7.495 -3.99 7.495 -5 8 C-5.69227032 10.80980673 -5.69227032 10.80980673 -6.125 14.0625 C-6.29257813 15.16722656 -6.46015625 16.27195312 -6.6328125 17.41015625 C-6.75398438 18.26480469 -6.87515625 19.11945313 -7 20 C-7.33 20 -7.66 20 -8 20 C-8 14.06 -8 8.12 -8 2 C-4 0 -4 0 0 0 Z " fill="#D0DDFE" transform="translate(99,74)"/>
<path d="M0 0 C2.97 0.495 2.97 0.495 6 1 C6.33 2.32 6.66 3.64 7 5 C5.35 5 3.7 5 2 5 C2 5.66 2 6.32 2 7 C2.66 7.66 3.32 8.32 4 9 C1.69 8.67 -0.62 8.34 -3 8 C-3.33 6.68 -3.66 5.36 -4 4 C-2.68 3.67 -1.36 3.34 0 3 C0 2.01 0 1.02 0 0 Z " fill="#DCE8FE" transform="translate(51,74)"/>
<path d="M0 0 C0.33 0 0.66 0 1 0 C1 6.27 1 12.54 1 19 C-0.65 19 -2.3 19 -4 19 C-4 15.04 -4 11.08 -4 7 C-3.67 7 -3.34 7 -3 7 C-3 10.3 -3 13.6 -3 17 C-2.34 17 -1.68 17 -1 17 C-1.01160156 15.85660156 -1.02320312 14.71320313 -1.03515625 13.53515625 C-1.04453288 12.04427246 -1.05363321 10.55338691 -1.0625 9.0625 C-1.07087891 8.30775391 -1.07925781 7.55300781 -1.08789062 6.77539062 C-1.09652441 4.85005687 -1.05224333 2.92464419 -1 1 C-0.67 0.67 -0.34 0.34 0 0 Z " fill="#8194EA" transform="translate(120,76)"/>
<path d="M0 0 C1.98 0 3.96 0 6 0 C5.21625 0.680625 4.4325 1.36125 3.625 2.0625 C0.54149479 5.51308916 -0.04357515 7.56566662 -1 12 C-2.875 11.5 -2.875 11.5 -5 10 C-5.98494554 7.34822355 -6.45912382 4.79452693 -7 2 C-5.02 2 -3.04 2 -1 2 C-0.67 1.34 -0.34 0.68 0 0 Z " fill="#F2F7FD" transform="translate(139,74)"/>
<path d="M0 0 C0.99 0.33 1.98 0.66 3 1 C4.3364486 7.43925234 4.3364486 7.43925234 2.875 9.875 C0.60789115 11.23526531 -1.39376858 11.64780657 -4 12 C-4 10.68 -4 9.36 -4 8 C-3.01 7.67 -2.02 7.34 -1 7 C-1 6.34 -1 5.68 -1 5 C-1.66 4.34 -2.32 3.68 -3 3 C-1.35 2.67 0.3 2.34 2 2 C1.34 2 0.68 2 0 2 C0 1.34 0 0.68 0 0 Z " fill="#6A7DE3" transform="translate(55,83)"/>
<path d="M0 0 C3.625 0.375 3.625 0.375 7 1 C7 2.32 7 3.64 7 5 C4.29120665 6.35439668 1.99066732 6.06501451 -1 6 C-1.625 4.125 -1.625 4.125 -2 2 C-1.34 1.34 -0.68 0.68 0 0 Z " fill="#EBF3FE" transform="translate(69,85)"/>
<path d="M0 0 C0.33 0 0.66 0 1 0 C1 3.96 1 7.92 1 12 C0.34 11.34 -0.32 10.68 -1 10 C-3.58354218 9.83312552 -3.58354218 9.83312552 -6 10 C-6.5625 8.0625 -6.5625 8.0625 -7 6 C-6 5 -6 5 -2.9375 4.9375 C-1.4834375 4.9684375 -1.4834375 4.9684375 0 5 C-0.33 4.01 -0.66 3.02 -1 2 C-0.67 1.34 -0.34 0.68 0 0 Z " fill="#D8D8D8" transform="translate(67,114)"/>
<path d="M0 0 C0.33 0.99 0.66 1.98 1 3 C-0.7015625 3.4021875 -0.7015625 3.4021875 -2.4375 3.8125 C-4.2009375 4.4003125 -4.2009375 4.4003125 -6 5 C-6.33 5.99 -6.66 6.98 -7 8 C-7.66 8 -8.32 8 -9 8 C-9.93423645 4.98968256 -10.04449911 4.13349732 -9 1 C-6.04335481 -0.4783226 -3.25770263 -0.06032783 0 0 Z " fill="#5C75E8" transform="translate(74,82)"/>
<path d="M0 0 C3.375 -0.1875 3.375 -0.1875 7 0 C7.66 0.99 8.32 1.98 9 3 C7.68 2.67 6.36 2.34 5 2 C5.33 3.32 5.66 4.64 6 6 C3.69 5.67 1.38 5.34 -1 5 C-0.67 3.35 -0.34 1.7 0 0 Z " fill="#637BE6" transform="translate(110,74)"/>
<path d="M0 0 C0 1.32 0 2.64 0 4 C-1.175625 4.4640625 -1.175625 4.4640625 -2.375 4.9375 C-4.92330128 5.92875038 -4.92330128 5.92875038 -7 7 C-7.1875 4.625 -7.1875 4.625 -7 2 C-4 0 -4 0 0 0 Z " fill="#6579E3" transform="translate(99,74)"/>
<path d="M0 0 C2.31 0.66 4.62 1.32 7 2 C7 3.32 7 4.64 7 6 C3.31245243 5.50168276 1.39509338 4.89932357 -1 2 C-0.67 1.34 -0.34 0.68 0 0 Z " fill="#6C81E1" transform="translate(43,89)"/>
<path d="M0 0 C0.33 0 0.66 0 1 0 C1 1.98 1 3.96 1 6 C1.66 6 2.32 6 3 6 C3.33 7.98 3.66 9.96 4 12 C2.68 12 1.36 12 0 12 C0 8.04 0 4.08 0 0 Z " fill="#5E75DD" transform="translate(129,82)"/>
<path d="M0 0 C5.625 -0.25 5.625 -0.25 9 2 C9 2.99 9 3.98 9 5 C7.02 4.34 5.04 3.68 3 3 C3 2.34 3 1.68 3 1 C2.01 0.67 1.02 0.34 0 0 Z " fill="#424242" transform="translate(101,109)"/>
<path d="M0 0 C0 1.32 0 2.64 0 4 C-1.65 4.66 -3.3 5.32 -5 6 C-5.33 4.68 -5.66 3.36 -6 2 C-3 0 -3 0 0 0 Z " fill="#5C75E3" transform="translate(148,74)"/>
<path d="M0 0 C1.4540625 0.0309375 1.4540625 0.0309375 2.9375 0.0625 C2.9375 0.3925 2.9375 0.7225 2.9375 1.0625 C1.2875 1.3925 -0.3625 1.7225 -2.0625 2.0625 C-0.7425 2.3925 0.5775 2.7225 1.9375 3.0625 C1.6075 3.7225 1.2775 4.3825 0.9375 5.0625 C-2.125 5.6875 -2.125 5.6875 -5.0625 6.0625 C-3.98897059 0.08140756 -3.98897059 0.08140756 0 0 Z " fill="#697CDF" transform="translate(126.0625,73.9375)"/>
<path d="M0 0 C1.98 0.66 3.96 1.32 6 2 C6 2.99 6 3.98 6 5 C4.35 4.67 2.7 4.34 1 4 C0.67 2.68 0.34 1.36 0 0 Z " fill="#6C7BE2" transform="translate(52,74)"/>
<path d="M0 0 C0 0.99 0 1.98 0 3 C-1.98 3.33 -3.96 3.66 -6 4 C-6 3.01 -6 2.02 -6 1 C-4 0 -4 0 0 0 Z " fill="#5A74E5" transform="translate(155,90)"/>
<path d="M0 0 C1.98 0.66 3.96 1.32 6 2 C6 2.99 6 3.98 6 5 C4.35 4.67 2.7 4.34 1 4 C0.67 2.68 0.34 1.36 0 0 Z " fill="#1F1F1F" transform="translate(97,122)"/>
<path d="M0 0 C1.65 0 3.3 0 5 0 C4.67 1.65 4.34 3.3 4 5 C2.68 4.67 1.36 4.34 0 4 C0 2.68 0 1.36 0 0 Z " fill="#EDF5FD" transform="translate(99,74)"/>
<path d="M0 0 C2.97 0 5.94 0 9 0 C9 0.33 9 0.66 9 1 C7.02 1.33 5.04 1.66 3 2 C2.67 3.65 2.34 5.3 2 7 C0.5393715 4.35261084 0 3.10551666 0 0 Z " fill="#D6E7FF" transform="translate(107,73)"/>
</svg>
